<mxfile host="Electron" modified="2023-12-18T17:56:26.585Z" agent="Mozilla/5.0 (Windows NT 10.0; Win64; x64) AppleWebKit/537.36 (KHTML, like Gecko) draw.io/22.1.2 Chrome/114.0.5735.289 Electron/25.9.4 Safari/537.36" etag="bInbqv1A2YXDtgK9qE37" version="22.1.2" type="device">
  <diagram name="Page-1" id="l4zb2SVr4d-LpLYehrL9">
    <mxGraphModel dx="1354" dy="806" grid="1" gridSize="10" guides="1" tooltips="1" connect="1" arrows="1" fold="1" page="1" pageScale="1" pageWidth="1169" pageHeight="827" background="#ffffff" math="0" shadow="0">
      <root>
        <mxCell id="0" />
        <mxCell id="1" parent="0" />
        <mxCell id="9pkHTN1L7EcZIKKuDzLH-1" value="d1" style="ellipse;whiteSpace=wrap;html=1;strokeColor=#2D7600;fillColor=#60a917;fontColor=#ffffff;" vertex="1" parent="1">
          <mxGeometry x="320" y="160" width="50" height="50" as="geometry" />
        </mxCell>
        <mxCell id="9pkHTN1L7EcZIKKuDzLH-3" value="d2" style="ellipse;whiteSpace=wrap;html=1;strokeColor=#A50040;fillColor=#d80073;fontColor=#ffffff;" vertex="1" parent="1">
          <mxGeometry x="496" y="290" width="50" height="50" as="geometry" />
        </mxCell>
        <mxCell id="9pkHTN1L7EcZIKKuDzLH-5" value="d3" style="ellipse;whiteSpace=wrap;html=1;strokeColor=#006EAF;fillColor=#1ba1e2;fontColor=#ffffff;" vertex="1" parent="1">
          <mxGeometry x="660" y="160" width="50" height="50" as="geometry" />
        </mxCell>
        <mxCell id="9pkHTN1L7EcZIKKuDzLH-36" style="edgeStyle=orthogonalEdgeStyle;rounded=0;orthogonalLoop=1;jettySize=auto;html=1;exitX=1;exitY=0;exitDx=0;exitDy=0;entryX=0;entryY=1;entryDx=0;entryDy=0;curved=1;strokeColor=#000000;" edge="1" parent="1" source="9pkHTN1L7EcZIKKuDzLH-8" target="9pkHTN1L7EcZIKKuDzLH-1">
          <mxGeometry relative="1" as="geometry" />
        </mxCell>
        <mxCell id="9pkHTN1L7EcZIKKuDzLH-37" style="edgeStyle=orthogonalEdgeStyle;rounded=0;orthogonalLoop=1;jettySize=auto;html=1;exitX=1;exitY=0;exitDx=0;exitDy=0;entryX=0;entryY=0.5;entryDx=0;entryDy=0;curved=1;strokeColor=#000000;" edge="1" parent="1" source="9pkHTN1L7EcZIKKuDzLH-8" target="9pkHTN1L7EcZIKKuDzLH-3">
          <mxGeometry relative="1" as="geometry" />
        </mxCell>
        <mxCell id="9pkHTN1L7EcZIKKuDzLH-8" value="t01" style="ellipse;whiteSpace=wrap;html=1;strokeColor=#6F0000;fillColor=#a20025;fontColor=#ffffff;" vertex="1" parent="1">
          <mxGeometry x="210" y="340" width="50" height="50" as="geometry" />
        </mxCell>
        <mxCell id="9pkHTN1L7EcZIKKuDzLH-38" style="edgeStyle=orthogonalEdgeStyle;rounded=0;orthogonalLoop=1;jettySize=auto;html=1;exitX=0.5;exitY=0;exitDx=0;exitDy=0;entryX=0;entryY=1;entryDx=0;entryDy=0;curved=1;strokeColor=#000000;" edge="1" parent="1" source="9pkHTN1L7EcZIKKuDzLH-9" target="9pkHTN1L7EcZIKKuDzLH-1">
          <mxGeometry relative="1" as="geometry" />
        </mxCell>
        <mxCell id="9pkHTN1L7EcZIKKuDzLH-39" style="edgeStyle=orthogonalEdgeStyle;rounded=0;orthogonalLoop=1;jettySize=auto;html=1;exitX=1;exitY=0;exitDx=0;exitDy=0;entryX=0;entryY=0.5;entryDx=0;entryDy=0;curved=1;strokeColor=#000000;" edge="1" parent="1" source="9pkHTN1L7EcZIKKuDzLH-9" target="9pkHTN1L7EcZIKKuDzLH-3">
          <mxGeometry relative="1" as="geometry" />
        </mxCell>
        <mxCell id="9pkHTN1L7EcZIKKuDzLH-9" value="t02" style="ellipse;whiteSpace=wrap;html=1;strokeColor=#6F0000;fillColor=#a20025;fontColor=#ffffff;" vertex="1" parent="1">
          <mxGeometry x="310" y="450" width="50" height="50" as="geometry" />
        </mxCell>
        <mxCell id="9pkHTN1L7EcZIKKuDzLH-10" style="edgeStyle=orthogonalEdgeStyle;rounded=0;orthogonalLoop=1;jettySize=auto;html=1;exitX=0.5;exitY=1;exitDx=0;exitDy=0;strokeColor=#000000;" edge="1" parent="1" source="9pkHTN1L7EcZIKKuDzLH-9" target="9pkHTN1L7EcZIKKuDzLH-9">
          <mxGeometry relative="1" as="geometry" />
        </mxCell>
        <mxCell id="9pkHTN1L7EcZIKKuDzLH-11" value="n" style="ellipse;whiteSpace=wrap;html=1;strokeColor=#A50040;fillColor=#d80073;fontColor=#ffffff;" vertex="1" parent="1">
          <mxGeometry x="360" y="30" width="50" height="50" as="geometry" />
        </mxCell>
        <mxCell id="9pkHTN1L7EcZIKKuDzLH-12" value="p" style="ellipse;whiteSpace=wrap;html=1;strokeColor=#2D7600;fillColor=#60a917;fontColor=#ffffff;" vertex="1" parent="1">
          <mxGeometry x="550" y="20" width="50" height="50" as="geometry" />
        </mxCell>
        <mxCell id="9pkHTN1L7EcZIKKuDzLH-13" value="m" style="ellipse;whiteSpace=wrap;html=1;strokeColor=#A50040;fillColor=#d80073;fontColor=#ffffff;" vertex="1" parent="1">
          <mxGeometry x="730" y="20" width="50" height="50" as="geometry" />
        </mxCell>
        <mxCell id="9pkHTN1L7EcZIKKuDzLH-52" style="edgeStyle=orthogonalEdgeStyle;rounded=0;orthogonalLoop=1;jettySize=auto;html=1;exitX=0;exitY=0;exitDx=0;exitDy=0;curved=1;strokeColor=#000000;" edge="1" parent="1" source="9pkHTN1L7EcZIKKuDzLH-14" target="9pkHTN1L7EcZIKKuDzLH-1">
          <mxGeometry relative="1" as="geometry" />
        </mxCell>
        <mxCell id="9pkHTN1L7EcZIKKuDzLH-53" style="edgeStyle=orthogonalEdgeStyle;rounded=0;orthogonalLoop=1;jettySize=auto;html=1;exitX=0;exitY=0.5;exitDx=0;exitDy=0;curved=1;strokeColor=#000000;" edge="1" parent="1" source="9pkHTN1L7EcZIKKuDzLH-14" target="9pkHTN1L7EcZIKKuDzLH-5">
          <mxGeometry relative="1" as="geometry" />
        </mxCell>
        <mxCell id="9pkHTN1L7EcZIKKuDzLH-54" style="edgeStyle=orthogonalEdgeStyle;rounded=0;orthogonalLoop=1;jettySize=auto;html=1;exitX=0;exitY=1;exitDx=0;exitDy=0;curved=1;strokeColor=#000000;" edge="1" parent="1" source="9pkHTN1L7EcZIKKuDzLH-14" target="9pkHTN1L7EcZIKKuDzLH-3">
          <mxGeometry relative="1" as="geometry">
            <Array as="points">
              <mxPoint x="867" y="250" />
              <mxPoint x="521" y="250" />
            </Array>
          </mxGeometry>
        </mxCell>
        <mxCell id="9pkHTN1L7EcZIKKuDzLH-14" value="t03" style="ellipse;whiteSpace=wrap;html=1;strokeColor=#6F0000;fillColor=#a20025;fontColor=#ffffff;" vertex="1" parent="1">
          <mxGeometry x="860" y="120" width="50" height="50" as="geometry" />
        </mxCell>
        <mxCell id="9pkHTN1L7EcZIKKuDzLH-49" style="edgeStyle=orthogonalEdgeStyle;rounded=0;orthogonalLoop=1;jettySize=auto;html=1;exitX=0;exitY=0;exitDx=0;exitDy=0;curved=1;strokeColor=#000000;" edge="1" parent="1" source="9pkHTN1L7EcZIKKuDzLH-15" target="9pkHTN1L7EcZIKKuDzLH-1">
          <mxGeometry relative="1" as="geometry" />
        </mxCell>
        <mxCell id="9pkHTN1L7EcZIKKuDzLH-50" style="edgeStyle=orthogonalEdgeStyle;rounded=0;orthogonalLoop=1;jettySize=auto;html=1;exitX=0.5;exitY=0;exitDx=0;exitDy=0;curved=1;strokeColor=#000000;" edge="1" parent="1" source="9pkHTN1L7EcZIKKuDzLH-15" target="9pkHTN1L7EcZIKKuDzLH-5">
          <mxGeometry relative="1" as="geometry" />
        </mxCell>
        <mxCell id="9pkHTN1L7EcZIKKuDzLH-51" style="edgeStyle=orthogonalEdgeStyle;rounded=0;orthogonalLoop=1;jettySize=auto;html=1;exitX=0;exitY=1;exitDx=0;exitDy=0;curved=1;strokeColor=#000000;" edge="1" parent="1" source="9pkHTN1L7EcZIKKuDzLH-15" target="9pkHTN1L7EcZIKKuDzLH-3">
          <mxGeometry relative="1" as="geometry" />
        </mxCell>
        <mxCell id="9pkHTN1L7EcZIKKuDzLH-15" value="t04" style="ellipse;whiteSpace=wrap;html=1;strokeColor=#6F0000;fillColor=#a20025;fontColor=#ffffff;" vertex="1" parent="1">
          <mxGeometry x="920" y="220" width="50" height="50" as="geometry" />
        </mxCell>
        <mxCell id="9pkHTN1L7EcZIKKuDzLH-46" style="edgeStyle=orthogonalEdgeStyle;rounded=0;orthogonalLoop=1;jettySize=auto;html=1;exitX=0;exitY=0;exitDx=0;exitDy=0;entryX=1;entryY=1;entryDx=0;entryDy=0;curved=1;strokeColor=#000000;" edge="1" parent="1" source="9pkHTN1L7EcZIKKuDzLH-16" target="9pkHTN1L7EcZIKKuDzLH-5">
          <mxGeometry relative="1" as="geometry" />
        </mxCell>
        <mxCell id="9pkHTN1L7EcZIKKuDzLH-47" style="edgeStyle=orthogonalEdgeStyle;rounded=0;orthogonalLoop=1;jettySize=auto;html=1;exitX=0;exitY=0.5;exitDx=0;exitDy=0;curved=1;strokeColor=#000000;" edge="1" parent="1" source="9pkHTN1L7EcZIKKuDzLH-16" target="9pkHTN1L7EcZIKKuDzLH-3">
          <mxGeometry relative="1" as="geometry" />
        </mxCell>
        <mxCell id="9pkHTN1L7EcZIKKuDzLH-16" value="t05" style="ellipse;whiteSpace=wrap;html=1;strokeColor=#6F0000;fillColor=#a20025;fontColor=#ffffff;" vertex="1" parent="1">
          <mxGeometry x="840" y="330" width="50" height="50" as="geometry" />
        </mxCell>
        <mxCell id="9pkHTN1L7EcZIKKuDzLH-45" style="edgeStyle=orthogonalEdgeStyle;rounded=0;orthogonalLoop=1;jettySize=auto;html=1;exitX=0;exitY=0.5;exitDx=0;exitDy=0;curved=1;strokeColor=#000000;" edge="1" parent="1" source="9pkHTN1L7EcZIKKuDzLH-17" target="9pkHTN1L7EcZIKKuDzLH-1">
          <mxGeometry relative="1" as="geometry" />
        </mxCell>
        <mxCell id="9pkHTN1L7EcZIKKuDzLH-17" value="t06" style="ellipse;whiteSpace=wrap;html=1;strokeColor=#6F0000;fillColor=#a20025;fontColor=#ffffff;" vertex="1" parent="1">
          <mxGeometry x="730" y="390" width="50" height="50" as="geometry" />
        </mxCell>
        <mxCell id="9pkHTN1L7EcZIKKuDzLH-40" style="edgeStyle=orthogonalEdgeStyle;rounded=0;orthogonalLoop=1;jettySize=auto;html=1;exitX=0.5;exitY=0;exitDx=0;exitDy=0;curved=1;strokeColor=#000000;" edge="1" parent="1" source="9pkHTN1L7EcZIKKuDzLH-18" target="9pkHTN1L7EcZIKKuDzLH-3">
          <mxGeometry relative="1" as="geometry" />
        </mxCell>
        <mxCell id="9pkHTN1L7EcZIKKuDzLH-41" style="edgeStyle=orthogonalEdgeStyle;rounded=0;orthogonalLoop=1;jettySize=auto;html=1;exitX=0.5;exitY=0;exitDx=0;exitDy=0;curved=1;strokeColor=#000000;" edge="1" parent="1" source="9pkHTN1L7EcZIKKuDzLH-18" target="9pkHTN1L7EcZIKKuDzLH-5">
          <mxGeometry relative="1" as="geometry" />
        </mxCell>
        <mxCell id="9pkHTN1L7EcZIKKuDzLH-42" style="edgeStyle=orthogonalEdgeStyle;rounded=0;orthogonalLoop=1;jettySize=auto;html=1;exitX=0;exitY=0;exitDx=0;exitDy=0;curved=1;strokeColor=#000000;" edge="1" parent="1" source="9pkHTN1L7EcZIKKuDzLH-18" target="9pkHTN1L7EcZIKKuDzLH-1">
          <mxGeometry relative="1" as="geometry" />
        </mxCell>
        <mxCell id="9pkHTN1L7EcZIKKuDzLH-18" value="t07" style="ellipse;whiteSpace=wrap;html=1;strokeColor=#6F0000;fillColor=#a20025;fontColor=#ffffff;" vertex="1" parent="1">
          <mxGeometry x="620" y="430" width="50" height="50" as="geometry" />
        </mxCell>
        <mxCell id="9pkHTN1L7EcZIKKuDzLH-55" style="edgeStyle=orthogonalEdgeStyle;rounded=0;orthogonalLoop=1;jettySize=auto;html=1;exitX=1;exitY=0;exitDx=0;exitDy=0;curved=1;strokeColor=#000000;" edge="1" parent="1" source="9pkHTN1L7EcZIKKuDzLH-19" target="9pkHTN1L7EcZIKKuDzLH-5">
          <mxGeometry relative="1" as="geometry">
            <Array as="points">
              <mxPoint x="503" y="380" />
              <mxPoint x="685" y="380" />
            </Array>
          </mxGeometry>
        </mxCell>
        <mxCell id="9pkHTN1L7EcZIKKuDzLH-56" style="edgeStyle=orthogonalEdgeStyle;rounded=0;orthogonalLoop=1;jettySize=auto;html=1;exitX=0;exitY=0.5;exitDx=0;exitDy=0;curved=1;strokeColor=#000000;" edge="1" parent="1" source="9pkHTN1L7EcZIKKuDzLH-19" target="9pkHTN1L7EcZIKKuDzLH-1">
          <mxGeometry relative="1" as="geometry" />
        </mxCell>
        <mxCell id="9pkHTN1L7EcZIKKuDzLH-19" value="t08" style="ellipse;whiteSpace=wrap;html=1;strokeColor=#006EAF;fillColor=#1ba1e2;fontColor=#ffffff;" vertex="1" parent="1">
          <mxGeometry x="460" y="510" width="50" height="50" as="geometry" />
        </mxCell>
        <mxCell id="9pkHTN1L7EcZIKKuDzLH-57" style="edgeStyle=orthogonalEdgeStyle;rounded=0;orthogonalLoop=1;jettySize=auto;html=1;exitX=1;exitY=0.5;exitDx=0;exitDy=0;curved=1;strokeColor=#000000;" edge="1" parent="1" source="9pkHTN1L7EcZIKKuDzLH-20" target="9pkHTN1L7EcZIKKuDzLH-5">
          <mxGeometry relative="1" as="geometry" />
        </mxCell>
        <mxCell id="9pkHTN1L7EcZIKKuDzLH-58" style="edgeStyle=orthogonalEdgeStyle;rounded=0;orthogonalLoop=1;jettySize=auto;html=1;exitX=0;exitY=0.5;exitDx=0;exitDy=0;entryX=1;entryY=1;entryDx=0;entryDy=0;curved=1;strokeColor=#000000;" edge="1" parent="1" source="9pkHTN1L7EcZIKKuDzLH-20" target="9pkHTN1L7EcZIKKuDzLH-1">
          <mxGeometry relative="1" as="geometry">
            <Array as="points">
              <mxPoint x="610" y="480" />
              <mxPoint x="363" y="480" />
            </Array>
          </mxGeometry>
        </mxCell>
        <mxCell id="9pkHTN1L7EcZIKKuDzLH-20" value="t09" style="ellipse;whiteSpace=wrap;html=1;strokeColor=#006EAF;fillColor=#1ba1e2;fontColor=#ffffff;" vertex="1" parent="1">
          <mxGeometry x="610" y="560" width="50" height="50" as="geometry" />
        </mxCell>
        <mxCell id="9pkHTN1L7EcZIKKuDzLH-59" style="edgeStyle=orthogonalEdgeStyle;rounded=0;orthogonalLoop=1;jettySize=auto;html=1;exitX=0.5;exitY=0;exitDx=0;exitDy=0;entryX=0;entryY=1;entryDx=0;entryDy=0;curved=1;strokeColor=#000000;" edge="1" parent="1" source="9pkHTN1L7EcZIKKuDzLH-21" target="9pkHTN1L7EcZIKKuDzLH-5">
          <mxGeometry relative="1" as="geometry">
            <Array as="points">
              <mxPoint x="710" y="540" />
              <mxPoint x="710" y="375" />
              <mxPoint x="667" y="375" />
            </Array>
          </mxGeometry>
        </mxCell>
        <mxCell id="9pkHTN1L7EcZIKKuDzLH-60" style="edgeStyle=orthogonalEdgeStyle;rounded=0;orthogonalLoop=1;jettySize=auto;html=1;exitX=0;exitY=0.5;exitDx=0;exitDy=0;curved=1;strokeColor=#000000;" edge="1" parent="1" source="9pkHTN1L7EcZIKKuDzLH-21" target="9pkHTN1L7EcZIKKuDzLH-1">
          <mxGeometry relative="1" as="geometry">
            <Array as="points">
              <mxPoint x="720" y="490" />
              <mxPoint x="345" y="490" />
            </Array>
          </mxGeometry>
        </mxCell>
        <mxCell id="9pkHTN1L7EcZIKKuDzLH-21" value="t10" style="ellipse;whiteSpace=wrap;html=1;strokeColor=#006EAF;fillColor=#1ba1e2;fontColor=#ffffff;" vertex="1" parent="1">
          <mxGeometry x="720" y="540" width="50" height="50" as="geometry" />
        </mxCell>
        <mxCell id="9pkHTN1L7EcZIKKuDzLH-28" value="" style="endArrow=classic;html=1;rounded=0;strokeColor=#000000;entryX=0;entryY=0.5;entryDx=0;entryDy=0;exitX=1;exitY=0.5;exitDx=0;exitDy=0;" edge="1" parent="1" source="9pkHTN1L7EcZIKKuDzLH-12" target="9pkHTN1L7EcZIKKuDzLH-13">
          <mxGeometry width="50" height="50" relative="1" as="geometry">
            <mxPoint x="580" y="170" as="sourcePoint" />
            <mxPoint x="630" y="120" as="targetPoint" />
          </mxGeometry>
        </mxCell>
        <mxCell id="9pkHTN1L7EcZIKKuDzLH-30" value="" style="endArrow=none;html=1;rounded=0;strokeColor=#000000;exitX=1;exitY=1;exitDx=0;exitDy=0;entryX=0;entryY=0;entryDx=0;entryDy=0;" edge="1" parent="1" source="9pkHTN1L7EcZIKKuDzLH-11" target="9pkHTN1L7EcZIKKuDzLH-5">
          <mxGeometry width="50" height="50" relative="1" as="geometry">
            <mxPoint x="530" y="220" as="sourcePoint" />
            <mxPoint x="580" y="170" as="targetPoint" />
          </mxGeometry>
        </mxCell>
        <mxCell id="9pkHTN1L7EcZIKKuDzLH-31" value="" style="endArrow=none;html=1;rounded=0;strokeColor=#000000;exitX=1;exitY=1;exitDx=0;exitDy=0;entryX=0.5;entryY=0;entryDx=0;entryDy=0;" edge="1" parent="1" source="9pkHTN1L7EcZIKKuDzLH-11" target="9pkHTN1L7EcZIKKuDzLH-1">
          <mxGeometry width="50" height="50" relative="1" as="geometry">
            <mxPoint x="423" y="73" as="sourcePoint" />
            <mxPoint x="677" y="177" as="targetPoint" />
          </mxGeometry>
        </mxCell>
        <mxCell id="9pkHTN1L7EcZIKKuDzLH-32" value="" style="endArrow=none;html=1;rounded=0;strokeColor=#000000;entryX=0;entryY=0.5;entryDx=0;entryDy=0;exitX=1;exitY=1;exitDx=0;exitDy=0;" edge="1" parent="1" source="9pkHTN1L7EcZIKKuDzLH-11" target="9pkHTN1L7EcZIKKuDzLH-12">
          <mxGeometry width="50" height="50" relative="1" as="geometry">
            <mxPoint x="420" y="140" as="sourcePoint" />
            <mxPoint x="667" y="187" as="targetPoint" />
          </mxGeometry>
        </mxCell>
        <mxCell id="9pkHTN1L7EcZIKKuDzLH-33" value="" style="endArrow=none;html=1;rounded=0;strokeColor=#000000;exitX=1;exitY=0.5;exitDx=0;exitDy=0;" edge="1" parent="1" source="9pkHTN1L7EcZIKKuDzLH-1" target="9pkHTN1L7EcZIKKuDzLH-5">
          <mxGeometry width="50" height="50" relative="1" as="geometry">
            <mxPoint x="423" y="73" as="sourcePoint" />
            <mxPoint x="650" y="190" as="targetPoint" />
          </mxGeometry>
        </mxCell>
        <mxCell id="9pkHTN1L7EcZIKKuDzLH-34" value="" style="curved=1;endArrow=classic;html=1;rounded=0;strokeColor=#000000;" edge="1" parent="1" target="9pkHTN1L7EcZIKKuDzLH-8">
          <mxGeometry width="50" height="50" relative="1" as="geometry">
            <mxPoint x="370" y="45" as="sourcePoint" />
            <mxPoint x="240" y="180" as="targetPoint" />
            <Array as="points">
              <mxPoint x="240" y="230" />
            </Array>
          </mxGeometry>
        </mxCell>
        <mxCell id="9pkHTN1L7EcZIKKuDzLH-35" value="" style="curved=1;endArrow=classic;html=1;rounded=0;strokeColor=#000000;exitX=0;exitY=0.5;exitDx=0;exitDy=0;entryX=0.354;entryY=0.065;entryDx=0;entryDy=0;entryPerimeter=0;" edge="1" parent="1" source="9pkHTN1L7EcZIKKuDzLH-11" target="9pkHTN1L7EcZIKKuDzLH-9">
          <mxGeometry width="50" height="50" relative="1" as="geometry">
            <mxPoint x="378" y="65" as="sourcePoint" />
            <mxPoint x="246" y="350" as="targetPoint" />
            <Array as="points">
              <mxPoint x="250" y="240" />
            </Array>
          </mxGeometry>
        </mxCell>
        <mxCell id="9pkHTN1L7EcZIKKuDzLH-43" style="edgeStyle=orthogonalEdgeStyle;rounded=0;orthogonalLoop=1;jettySize=auto;html=1;exitX=0;exitY=0;exitDx=0;exitDy=0;entryX=0.844;entryY=0.718;entryDx=0;entryDy=0;entryPerimeter=0;curved=1;strokeColor=#000000;" edge="1" parent="1" source="9pkHTN1L7EcZIKKuDzLH-17" target="9pkHTN1L7EcZIKKuDzLH-3">
          <mxGeometry relative="1" as="geometry" />
        </mxCell>
        <mxCell id="9pkHTN1L7EcZIKKuDzLH-44" style="edgeStyle=orthogonalEdgeStyle;rounded=0;orthogonalLoop=1;jettySize=auto;html=1;exitX=0.5;exitY=0;exitDx=0;exitDy=0;entryX=0.638;entryY=0.939;entryDx=0;entryDy=0;entryPerimeter=0;curved=1;strokeColor=#000000;" edge="1" parent="1" source="9pkHTN1L7EcZIKKuDzLH-17" target="9pkHTN1L7EcZIKKuDzLH-5">
          <mxGeometry relative="1" as="geometry" />
        </mxCell>
        <mxCell id="9pkHTN1L7EcZIKKuDzLH-48" style="edgeStyle=orthogonalEdgeStyle;rounded=0;orthogonalLoop=1;jettySize=auto;html=1;exitX=0.5;exitY=0;exitDx=0;exitDy=0;entryX=0.701;entryY=0.855;entryDx=0;entryDy=0;entryPerimeter=0;curved=1;strokeColor=#000000;" edge="1" parent="1" source="9pkHTN1L7EcZIKKuDzLH-16" target="9pkHTN1L7EcZIKKuDzLH-1">
          <mxGeometry relative="1" as="geometry" />
        </mxCell>
        <mxCell id="9pkHTN1L7EcZIKKuDzLH-61" value="t12" style="ellipse;whiteSpace=wrap;html=1;strokeColor=#006EAF;fillColor=#1ba1e2;fontColor=#ffffff;" vertex="1" parent="1">
          <mxGeometry x="640" y="70" width="50" height="50" as="geometry" />
        </mxCell>
        <mxCell id="9pkHTN1L7EcZIKKuDzLH-62" value="t11" style="ellipse;whiteSpace=wrap;html=1;strokeColor=#2D7600;fillColor=#60a917;fontColor=#ffffff;" vertex="1" parent="1">
          <mxGeometry x="810" y="50" width="50" height="50" as="geometry" />
        </mxCell>
      </root>
    </mxGraphModel>
  </diagram>
</mxfile>
